# xmcd
#
# Track frame offsets:
#	150
#	18133
#	34417
#	48482
#	59902
#	74647
#	89379
#	102133
#	122388
#	141752
#	154951
#
# Disc length: 2285 seconds
# Revision: 0
# Processed by: cddbd v1.5.2PL0 Copyright (c) Steve Scherf et al.
# Submitted via: dBpowerAMP V12.0
#
DISCID=9b08eb0b
DTITLE=Liam Gerner - Land Of No Roads
DYEAR=2013
DGENRE=Country
TTITLE0=Debt and Denialville
TTITLE1=Hank and Tammy
TTITLE2=Say I Do
TTITLE3=What Could Have been
TTITLE4=Rich Man
TTITLE5=Mother Nature's Runaway Girl
TTITLE6=All We've Done
TTITLE7=The Resurrection of Henry Box Brown
TTITLE8=Window To A Wall
TTITLE9=Son Of A Scroundrel
TTITLE10=Land Of No Roads
EXTD=
EXTT0=
EXTT1=
EXTT2=
EXTT3=
EXTT4=
EXTT5=
EXTT6=
EXTT7=
EXTT8=
EXTT9=
EXTT10=
PLAYORDER=
